<?xml version="1.0" encoding="UTF-8" standalone="no"?>
<svg
   width="32"
   height="32"
   viewBox="0 0 32 32"
   version="1.1"
   id="svg54"
   sodipodi:docname="pineapple.svg"
   inkscape:version="1.2 (dc2aedaf03, 2022-05-15)"
   xmlns:inkscape="http://www.inkscape.org/namespaces/inkscape"
   xmlns:sodipodi="http://sodipodi.sourceforge.net/DTD/sodipodi-0.dtd"
   xmlns="http://www.w3.org/2000/svg"
   xmlns:svg="http://www.w3.org/2000/svg">
  <defs
     id="defs58" />
  <sodipodi:namedview
     id="namedview56"
     pagecolor="#ffffff"
     bordercolor="#000000"
     borderopacity="0.25"
     inkscape:showpageshadow="2"
     inkscape:pageopacity="0.0"
     inkscape:pagecheckerboard="0"
     inkscape:deskcolor="#d1d1d1"
     showgrid="false"
     inkscape:zoom="9.0939394"
     inkscape:cx="24.136954"
     inkscape:cy="25.95135"
     inkscape:window-width="1920"
     inkscape:window-height="1027"
     inkscape:window-x="-8"
     inkscape:window-y="-8"
     inkscape:window-maximized="1"
     inkscape:current-layer="svg54" />
  <g
     id="g52"
     transform="matrix(0.5,0,0,0.50002383,4.0000001,4)">
    <path
       d="m 29.339,42.249 c -8.2,8.2 -17.529,6.968 -24.043,0.455 -6.514,-6.513 -7.75,-15.84 0.455,-24.044 8.205,-8.204 21.178,-10.617 27.692,-4.1 6.514,6.517 4.101,19.485 -4.104,27.689 z"
       fill="#f1bb6b"
       id="path2" />
    <path
       d="m 44.058,3.941 a 16.634,16.634 0 0 0 -11.933,4.85 l 7.083,7.083 a 16.633,16.633 0 0 0 4.85,-11.933 z"
       fill="#79ccb8"
       id="path4" />
    <path
       d="m 32.572,0 a 17,17 0 0 1 -5.358,8.427 l 4.1,6.093 C 40.779,7.22 32.572,0 32.572,0 Z"
       fill="#3daa9d"
       id="path6" />
    <path
       d="m 32.572,0 a 15.472,15.472 0 0 1 -6.414,8.427 l 5.153,6.093 A 11.252,11.252 0 0 0 32.572,0 Z"
       fill="#79ccb8"
       id="path8" />
    <path
       d="m 48,15.428 a 16.993,16.993 0 0 0 -8.428,5.356 l -6.092,-4.1 C 40.778,7.22 48,15.428 48,15.428 Z"
       fill="#3daa9d"
       id="path10" />
    <path
       d="m 48,15.428 a 15.467,15.467 0 0 0 -8.428,6.413 L 33.48,16.688 A 11.251,11.251 0 0 1 48,15.428 Z"
       fill="#79ccb8"
       id="path12" />
    <path
       d="M 40.113,7.885 C 32.397,7.656 26.446,14.169 26.446,14.169 v 0 a 12.741,12.741 0 0 0 7.386,7.387 v 0 c 0,0 6.51,-5.956 6.281,-13.671 z"
       fill="#3daa9d"
       id="path14" />
    <path
       d="M 38.528,9.469 A 16.633,16.633 0 0 0 26.6,14.319 v 0 a 11.765,11.765 0 0 0 7.081,7.081 v 0 A 16.639,16.639 0 0 0 38.528,9.469 Z"
       fill="#79ccb8"
       id="path16" />
    <path
       d="M 27.669,17.717 C 24.04,15.305 24.6,9.768 24.6,9.768 c 0,0 2.139,-2.6 0.366,-8.665 -0.003,-0.003 10.968,6.814 2.703,16.614 z"
       fill="#3daa9d"
       id="path18" />
    <path
       d="m 27.669,17.717 a 10.391,10.391 0 0 1 -4.128,-6.894 c 0,0 3.2,-3.654 1.422,-9.721 0,-0.002 7.837,7.687 2.706,16.615 z"
       fill="#79ccb8"
       id="path20" />
    <path
       d="m 30.282,20.329 c 2.412,3.629 7.95,3.073 7.95,3.073 0,0 2.6,-2.14 8.665,-0.367 0.003,0 -6.816,-10.97 -16.615,-2.706 z"
       fill="#3daa9d"
       id="path22" />
    <path
       d="m 30.282,20.329 a 10.4,10.4 0 0 0 6.894,4.129 c 0,0 3.655,-3.195 9.721,-1.423 0.003,0 -7.687,-7.835 -16.615,-2.706 z"
       fill="#79ccb8"
       id="path24" />
    <g
       id="g50">
      <path
         d="m 5.381,37.372 0.825,0.825 c 2.6,-0.377 3.961,0.982 3.584,3.584 l 0.825,0.825 c 2.044,-4.935 -0.297,-7.277 -5.234,-5.234 z"
         fill="#e49a61"
         id="path26" />
      <path
         d="m 14.509,37.062 0.825,0.825 c 2.043,-4.936 -0.3,-7.277 -5.234,-5.233 l 0.825,0.824 c 2.601,-0.378 3.96,0.984 3.584,3.584 z"
         fill="#e49a61"
         id="path28" />
      <path
         d="m 20.052,33.17 c 2.043,-4.936 -0.3,-7.277 -5.234,-5.234 l 0.825,0.825 c 2.6,-0.377 3.961,0.982 3.584,3.584 z"
         fill="#e49a61"
         id="path30" />
      <path
         d="m 20.361,24.042 c 2.6,-0.376 3.96,0.983 3.584,3.585 l 0.825,0.824 c 2.043,-4.936 -0.3,-7.277 -5.234,-5.233 z"
         fill="#e49a61"
         id="path32" />
      <path
         d="m 6.842,34.114 0.825,0.825 C 9.71,30.002 7.367,27.662 2.434,29.705 l 0.825,0.825 c 2.6,-0.377 3.959,0.983 3.583,3.584 z"
         fill="#e49a61"
         id="path34" />
      <path
         d="m 13.049,40.321 0.825,0.824 c 2.6,-0.376 3.961,0.983 3.584,3.585 l 0.825,0.824 c 2.043,-4.935 -0.298,-7.277 -5.234,-5.233 z"
         fill="#e49a61"
         id="path36" />
      <path
         d="m 18.357,36.192 0.825,0.825 c 2.6,-0.376 3.96,0.982 3.583,3.584 l 0.825,0.825 c 2.043,-4.936 -0.297,-7.277 -5.233,-5.234 z"
         fill="#e49a61"
         id="path38" />
      <path
         d="m 23.665,32.063 0.825,0.826 c 2.6,-0.377 3.96,0.982 3.584,3.583 l 0.825,0.826 C 30.942,32.362 28.6,30.021 23.665,32.063 Z"
         fill="#e49a61"
         id="path40" />
      <path
         d="m 27.2,26.166 0.825,0.825 c 2.6,-0.377 3.961,0.982 3.584,3.584 L 32.434,31.4 C 34.481,26.465 32.14,24.123 27.2,26.166 Z"
         fill="#e49a61"
         id="path42" />
      <path
         d="m 10.97,28.806 0.825,0.825 c 2.043,-4.936 -0.3,-7.276 -5.234,-5.234 l 0.825,0.825 c 2.601,-0.377 3.961,0.978 3.584,3.584 z"
         fill="#e49a61"
         id="path44" />
      <path
         d="m 15.1,23.5 0.825,0.825 c 2.042,-4.937 -0.3,-7.277 -5.234,-5.234 l 0.825,0.825 c 2.6,-0.378 3.959,0.984 3.584,3.584 z"
         fill="#e49a61"
         id="path46" />
      <path
         d="m 21,19.96 0.825,0.824 c 2.042,-4.937 -0.3,-7.277 -5.234,-5.233 l 0.825,0.824 C 20.014,16 21.373,17.358 21,19.96 Z"
         fill="#e49a61"
         id="path48" />
    </g>
  </g>
</svg>
